# xmcd
#
# Track frame offsets: 
#        150
#        19847
#        37274
#        55783
#        68976
#        81535
#        100884
#        118261
#        139778
#        158752
#        173511
#
# Disc length: 2609 seconds
#
# Revision: 4
# Processed by: cddbd v1.5.1PL0 Copyright (c) Steve Scherf et al.
# Submitted via: ExactAudioCopy v0.95a5
#
DISCID=970a2f0b
DTITLE=Lúnasa - The Merry Sisters of Fate
DYEAR=2001
DGENRE=Celtic
TTITLE0=Aoibhneas
TTITLE1=Donogh and Mike's
TTITLE2=Killarney Boys of Pleasure
TTITLE3=The Merry Sisters of Fate
TTITLE4=Iníon Ní Scannláin
TTITLE5=Casu
TTITLE6=Páistin Fionn
TTITLE7=The Minor Bee
TTITLE8=Scully's
TTITLE9=Return from Fingal
TTITLE10=Morning Nightcap
EXTD=
EXTT0=
EXTT1=
EXTT2=
EXTT3=
EXTT4=
EXTT5=
EXTT6=
EXTT7=
EXTT8=
EXTT9=
EXTT10=
PLAYORDER=
